<svg xmlns="http://www.w3.org/2000/svg" xmlns:xlink="http://www.w3.org/1999/xlink" width="500" zoomAndPan="magnify" viewBox="0 0 375 374.999991" height="500" preserveAspectRatio="xMidYMid meet" version="1.0"><defs><g/><clipPath id="deb60449fc"><path d="M 26 103 L 349 103 L 349 254.25 L 26 254.25 Z M 26 103 " clip-rule="nonzero"/></clipPath></defs><rect x="-37.5" width="450" fill="#ffffff" y="-37.499999" height="449.999989" fill-opacity="1"/><rect x="-37.5" width="450" fill="#52acff" y="-37.499999" height="449.999989" fill-opacity="1"/><g clip-path="url(#deb60449fc)"><path fill="#ffffff" d="M 165.046875 105.609375 C 165.4375 106.449219 165.832031 107.285156 166.230469 108.117188 C 166.082031 107.160156 165.660156 106.300781 165.046875 105.609375 M 295.683594 103.953125 C 295.683594 103.953125 262.070312 103.953125 221.539062 103.953125 C 220.066406 107.296875 218.542969 110.601562 216.996094 113.808594 C 251.65625 113.808594 282.082031 113.808594 292.15625 113.808594 L 293.746094 118.476562 C 294.242188 116.273438 296.207031 114.632812 298.554688 114.632812 C 298.566406 114.632812 298.578125 114.632812 298.585938 114.632812 C 301.308594 114.648438 303.5 116.871094 303.484375 119.59375 C 303.449219 125.101562 302.78125 130.183594 301.519531 134.847656 C 301.273438 135.769531 300.777344 136.558594 300.125 137.167969 L 336.734375 244.4375 L 50.578125 244.4375 C 50.375 244.6875 50.1875 244.941406 50.007812 245.199219 C 49.074219 246.558594 48.445312 248.015625 48.105469 249.769531 C 47.652344 252.128906 45.585938 253.769531 43.269531 253.769531 C 42.960938 253.769531 42.648438 253.742188 42.335938 253.679688 C 39.660156 253.167969 37.910156 250.582031 38.421875 247.910156 C 38.652344 246.710938 38.972656 245.550781 39.382812 244.4375 L 38.519531 244.4375 L 85.945312 113.808594 C 86.769531 113.808594 87.726562 113.808594 88.820312 113.808594 C 100.589844 113.808594 127.441406 113.808594 158.027344 113.808594 C 156.472656 110.601562 154.941406 107.296875 153.464844 103.953125 C 135.214844 103.953125 118.542969 103.953125 105.945312 103.953125 C 98.75 103.953125 92.886719 103.953125 88.820312 103.953125 C 84.757812 103.953125 82.496094 103.953125 82.492188 103.953125 C 80.421875 103.953125 78.5625 105.253906 77.859375 107.199219 L 26.851562 247.683594 C 26.300781 249.203125 26.519531 250.871094 27.445312 252.195312 C 28.375 253.515625 29.871094 254.292969 31.484375 254.292969 L 343.625 254.292969 C 345.222656 254.292969 346.703125 253.535156 347.632812 252.234375 C 348.5625 250.933594 348.804688 249.285156 348.289062 247.773438 L 300.34375 107.289062 C 299.664062 105.289062 297.796875 103.953125 295.683594 103.953125 " fill-opacity="1" fill-rule="nonzero"/></g><path fill="#4f1e0c" d="M 187.507812 75.628906 C 180.984375 75.625 175.121094 72.996094 170.839844 68.722656 C 166.5625 64.441406 163.9375 58.578125 163.933594 52.050781 C 163.9375 45.527344 166.5625 39.664062 170.839844 35.382812 C 175.121094 31.105469 180.984375 28.476562 187.507812 28.476562 C 194.035156 28.476562 199.898438 31.105469 204.179688 35.382812 C 208.453125 39.664062 211.085938 45.527344 211.085938 52.050781 C 211.085938 58.578125 208.453125 64.441406 204.179688 68.722656 C 199.898438 72.996094 194.035156 75.625 187.507812 75.628906 M 187.515625 18.617188 C 187.515625 18.617188 187.511719 18.617188 187.507812 18.617188 C 187.503906 18.617188 187.5 18.617188 187.496094 18.617188 C 178.285156 18.617188 169.898438 22.367188 163.867188 28.410156 C 157.824219 34.445312 154.070312 42.835938 154.074219 52.050781 C 154.070312 61.269531 157.824219 69.660156 163.867188 75.695312 C 169.898438 81.734375 178.285156 85.488281 187.5 85.488281 C 187.503906 85.488281 187.503906 85.488281 187.507812 85.488281 C 196.726562 85.488281 205.117188 81.738281 211.152344 75.695312 C 217.195312 69.660156 220.945312 61.269531 220.945312 52.050781 C 220.945312 42.835938 217.195312 34.445312 211.152344 28.410156 C 205.121094 22.367188 196.730469 18.617188 187.515625 18.617188 M 187.515625 0.0546875 C 187.515625 0.0546875 187.511719 0.0546875 187.507812 0.0546875 C 173.714844 0.0546875 161.179688 5.660156 152.148438 14.703125 C 143.105469 23.734375 137.496094 36.269531 137.5 50.0625 C 137.503906 53.714844 138.085938 57.824219 139.058594 62.375 C 140.769531 70.324219 143.726562 79.601562 147.371094 89.160156 C 149.246094 94.074219 151.300781 99.058594 153.464844 103.949219 C 156.066406 103.949219 158.703125 103.949219 161.359375 103.949219 C 162.824219 103.949219 164.140625 104.59375 165.046875 105.609375 C 161.132812 97.21875 157.449219 88.316406 154.476562 79.925781 C 152.292969 73.773438 150.492188 67.898438 149.253906 62.742188 C 148.007812 57.59375 147.351562 53.132812 147.359375 50.0625 C 147.359375 38.960938 151.84375 28.953125 159.117188 21.671875 C 166.398438 14.398438 176.40625 9.917969 187.507812 9.914062 C 198.609375 9.917969 208.617188 14.398438 215.898438 21.671875 C 223.167969 28.953125 227.652344 38.960938 227.65625 50.0625 C 227.664062 52.613281 227.203125 56.175781 226.304688 60.296875 C 224.746094 67.519531 221.902344 76.488281 218.363281 85.761719 C 213.054688 99.675781 206.175781 114.347656 199.808594 125.335938 C 196.636719 130.824219 193.566406 135.40625 191.050781 138.394531 C 189.800781 139.882812 188.679688 140.96875 187.929688 141.523438 C 187.824219 141.601562 187.726562 141.671875 187.640625 141.730469 C 187.4375 141.601562 187.171875 141.414062 186.878906 141.167969 C 185.640625 140.164062 183.859375 138.207031 181.925781 135.59375 C 178.519531 131.011719 174.5625 124.433594 170.632812 116.921875 C 169.15625 114.105469 167.679688 111.152344 166.230469 108.117188 C 166.265625 108.367188 166.289062 108.621094 166.289062 108.882812 C 166.289062 111.605469 164.082031 113.8125 161.359375 113.8125 C 160.246094 113.8125 159.132812 113.8125 158.03125 113.8125 C 160.835938 119.605469 163.730469 125.097656 166.582031 129.996094 C 169.957031 135.796875 173.246094 140.753906 176.402344 144.503906 C 177.988281 146.378906 179.527344 147.964844 181.1875 149.238281 C 182.019531 149.871094 182.890625 150.433594 183.867188 150.886719 C 184.84375 151.339844 185.949219 151.691406 187.21875 151.773438 C 187.371094 151.78125 187.519531 151.785156 187.664062 151.785156 C 188.671875 151.785156 189.589844 151.589844 190.402344 151.308594 C 191.976562 150.757812 193.234375 149.921875 194.4375 148.949219 C 196.671875 147.117188 198.761719 144.691406 200.976562 141.710938 C 204.820312 136.503906 208.929688 129.585938 213.023438 121.738281 C 214.355469 119.183594 215.6875 116.53125 216.996094 113.8125 C 216.253906 113.8125 215.503906 113.8125 214.761719 113.8125 C 212.039062 113.8125 209.832031 111.605469 209.832031 108.882812 C 209.832031 106.160156 212.039062 103.953125 214.761719 103.953125 C 217.039062 103.953125 219.300781 103.953125 221.539062 103.953125 C 224.5625 97.09375 227.375 90.0625 229.78125 83.292969 C 232.0625 76.859375 233.972656 70.667969 235.332031 65.050781 C 236.683594 59.421875 237.511719 54.402344 237.515625 50.0625 C 237.519531 36.269531 231.914062 23.738281 222.871094 14.703125 C 213.835938 5.664062 201.308594 0.0546875 187.515625 0.0546875 " fill-opacity="1" fill-rule="nonzero"/><path fill="#145da0" d="M 161.359375 103.953125 C 158.703125 103.953125 156.066406 103.953125 153.464844 103.953125 C 154.945312 107.296875 156.472656 110.601562 158.03125 113.808594 C 159.132812 113.808594 160.246094 113.808594 161.359375 113.808594 C 164.082031 113.808594 166.289062 111.601562 166.289062 108.882812 C 166.289062 108.621094 166.265625 108.363281 166.230469 108.117188 C 165.832031 107.285156 165.4375 106.449219 165.046875 105.609375 C 164.144531 104.59375 162.824219 103.953125 161.359375 103.953125 M 221.539062 103.953125 C 219.300781 103.953125 217.039062 103.953125 214.757812 103.953125 C 212.035156 103.953125 209.828125 106.160156 209.828125 108.882812 C 209.828125 111.601562 212.035156 113.808594 214.757812 113.808594 C 215.503906 113.808594 216.253906 113.808594 216.996094 113.808594 C 218.542969 110.597656 220.066406 107.296875 221.539062 103.953125 " fill-opacity="1" fill-rule="nonzero"/><path fill="#4f1e0c" d="M 50.984375 232.480469 C 49.992188 232.480469 48.996094 232.777344 48.132812 233.394531 C 45.714844 235.109375 43.578125 237.164062 41.894531 239.597656 C 40.871094 241.078125 40.023438 242.703125 39.382812 244.4375 L 50.578125 244.4375 C 51.4375 243.371094 52.515625 242.371094 53.839844 241.429688 C 56.058594 239.855469 56.582031 236.777344 55.003906 234.558594 C 54.042969 233.203125 52.523438 232.480469 50.984375 232.480469 M 77.875 224.328125 C 77.695312 224.328125 77.511719 224.339844 77.328125 224.359375 C 72.167969 224.929688 67.21875 225.765625 62.636719 226.996094 C 60.003906 227.703125 58.449219 230.410156 59.152344 233.035156 C 59.746094 235.238281 61.734375 236.6875 63.910156 236.6875 C 64.335938 236.6875 64.765625 236.632812 65.195312 236.515625 C 69.132812 235.457031 73.617188 234.683594 78.410156 234.15625 C 81.117188 233.859375 83.066406 231.421875 82.769531 228.714844 C 82.488281 226.195312 80.355469 224.328125 77.875 224.328125 M 120.402344 223.773438 C 117.769531 223.773438 115.585938 225.851562 115.480469 228.503906 C 115.367188 231.222656 117.484375 233.519531 120.203125 233.628906 C 125.234375 233.832031 130.027344 234.0625 134.398438 234.222656 C 134.460938 234.222656 134.523438 234.226562 134.585938 234.226562 C 137.222656 234.226562 139.40625 232.136719 139.507812 229.476562 C 139.609375 226.757812 137.480469 224.472656 134.761719 224.367188 C 130.46875 224.210938 125.679688 223.984375 120.601562 223.777344 C 120.535156 223.777344 120.46875 223.773438 120.402344 223.773438 M 100.015625 223.285156 C 97.308594 223.285156 94.585938 223.316406 91.882812 223.398438 C 89.160156 223.476562 87.023438 225.746094 87.101562 228.46875 C 87.179688 231.140625 89.367188 233.253906 92.023438 233.253906 C 92.074219 233.253906 92.121094 233.253906 92.171875 233.253906 C 94.765625 233.175781 97.386719 233.144531 100.011719 233.144531 C 102.054688 233.144531 104.101562 233.164062 106.140625 233.199219 C 106.167969 233.199219 106.195312 233.199219 106.226562 233.199219 C 108.90625 233.199219 111.105469 231.046875 111.152344 228.355469 C 111.199219 225.632812 109.027344 223.386719 106.308594 223.339844 C 104.222656 223.304688 102.121094 223.285156 100.015625 223.285156 M 162.394531 220.875 C 161.660156 220.875 160.910156 221.039062 160.203125 221.390625 C 157.449219 222.773438 153.90625 223.820312 150.90625 224.238281 C 150.25 224.332031 149.421875 224.410156 148.472656 224.46875 C 145.753906 224.628906 143.679688 226.960938 143.839844 229.679688 C 143.996094 232.296875 146.167969 234.316406 148.757812 234.316406 C 148.855469 234.316406 148.953125 234.316406 149.054688 234.308594 C 150.207031 234.238281 151.28125 234.140625 152.296875 234 C 156.359375 233.410156 160.695312 232.148438 164.597656 230.21875 C 167.03125 229.007812 168.027344 226.046875 166.8125 223.609375 C 165.949219 221.875 164.207031 220.875 162.394531 220.875 M 159.117188 201.246094 C 157.128906 201.246094 155.253906 202.453125 154.507812 204.421875 C 153.542969 206.96875 154.820312 209.816406 157.363281 210.78125 C 158.289062 211.132812 159.066406 211.503906 159.683594 211.875 C 161.574219 213.019531 162.898438 214.078125 163.734375 214.933594 C 164.574219 215.792969 164.898438 216.421875 165.011719 216.746094 C 165.71875 218.777344 167.625 220.050781 169.664062 220.050781 C 170.203125 220.050781 170.753906 219.960938 171.292969 219.769531 C 173.859375 218.871094 175.214844 216.058594 174.3125 213.488281 C 173.609375 211.480469 172.382812 209.6875 170.792969 208.050781 C 169.191406 206.414062 167.210938 204.90625 164.777344 203.4375 C 163.523438 202.683594 162.214844 202.078125 160.863281 201.566406 C 160.292969 201.347656 159.699219 201.246094 159.117188 201.246094 M 131.589844 194.496094 C 129.664062 194.496094 127.835938 195.628906 127.042969 197.515625 C 125.992188 200.023438 127.167969 202.914062 129.679688 203.96875 C 134.429688 205.949219 139.578125 206.925781 144.421875 207.816406 C 144.71875 207.871094 145.019531 207.898438 145.3125 207.898438 C 147.648438 207.898438 149.722656 206.230469 150.15625 203.851562 C 150.644531 201.175781 148.871094 198.605469 146.191406 198.121094 C 141.453125 197.265625 136.882812 196.316406 133.496094 194.878906 C 132.871094 194.621094 132.226562 194.496094 131.589844 194.496094 M 129.652344 173.324219 C 128.660156 173.324219 127.664062 173.621094 126.796875 174.238281 C 124.546875 175.847656 122.335938 177.78125 120.53125 180.160156 C 119.632812 181.351562 118.839844 182.660156 118.246094 184.132812 C 117.65625 185.597656 117.277344 187.238281 117.277344 188.980469 C 117.277344 189.351562 117.292969 189.722656 117.328125 190.097656 C 117.570312 192.652344 119.714844 194.566406 122.230469 194.566406 C 122.386719 194.566406 122.542969 194.558594 122.703125 194.542969 C 125.410156 194.285156 127.398438 191.882812 127.144531 189.171875 L 127.132812 188.980469 C 127.132812 188.675781 127.195312 188.300781 127.394531 187.808594 C 127.683594 187.074219 128.304688 186.109375 129.214844 185.125 C 130.117188 184.140625 131.28125 183.148438 132.515625 182.269531 C 134.734375 180.691406 135.25 177.613281 133.671875 175.398438 C 132.710938 174.042969 131.191406 173.324219 129.652344 173.324219 M 199.316406 168.359375 C 196.65625 168.359375 194.464844 170.476562 194.390625 173.152344 C 194.316406 175.875 196.460938 178.140625 199.183594 178.214844 C 202.511719 178.308594 205.9375 178.367188 209.433594 178.367188 C 210.800781 178.367188 212.179688 178.355469 213.570312 178.339844 C 216.292969 178.300781 218.472656 176.066406 218.433594 173.34375 C 218.398438 170.644531 216.199219 168.480469 213.507812 168.480469 C 213.480469 168.480469 213.460938 168.480469 213.4375 168.480469 C 212.097656 168.5 210.761719 168.507812 209.433594 168.507812 C 206.042969 168.507812 202.707031 168.453125 199.453125 168.359375 C 199.410156 168.359375 199.363281 168.359375 199.316406 168.359375 M 170.980469 166.964844 C 168.371094 166.964844 166.191406 169.011719 166.058594 171.648438 C 165.921875 174.367188 168.015625 176.683594 170.738281 176.816406 C 174.003906 176.984375 177.238281 177.1875 180.382812 177.367188 C 181.835938 177.449219 183.339844 177.535156 184.882812 177.617188 C 184.972656 177.621094 185.0625 177.625 185.152344 177.625 C 187.753906 177.625 189.925781 175.585938 190.066406 172.957031 C 190.210938 170.238281 188.125 167.917969 185.410156 167.773438 C 183.882812 167.691406 182.394531 167.605469 180.945312 167.523438 C 177.84375 167.347656 174.582031 167.140625 171.230469 166.972656 C 171.144531 166.96875 171.0625 166.964844 170.980469 166.964844 M 156.804688 166.691406 C 156.765625 166.691406 156.722656 166.691406 156.683594 166.695312 C 151.6875 166.816406 146.664062 167.222656 141.769531 168.15625 C 139.097656 168.667969 137.34375 171.253906 137.859375 173.925781 C 138.308594 176.289062 140.375 177.929688 142.691406 177.929688 C 143 177.929688 143.3125 177.902344 143.625 177.839844 C 147.808594 177.039062 152.304688 176.660156 156.921875 176.546875 C 159.640625 176.480469 161.796875 174.222656 161.730469 171.5 C 161.664062 168.820312 159.472656 166.691406 156.804688 166.691406 M 241.800781 166.386719 C 241.558594 166.386719 241.3125 166.40625 241.066406 166.441406 C 236.570312 167.117188 231.96875 167.59375 227.339844 167.921875 C 224.625 168.109375 222.582031 170.46875 222.769531 173.183594 C 222.953125 175.78125 225.117188 177.765625 227.683594 177.765625 C 227.796875 177.765625 227.914062 177.761719 228.035156 177.753906 C 232.875 177.414062 237.734375 176.90625 242.527344 176.1875 C 245.21875 175.785156 247.074219 173.277344 246.667969 170.582031 C 246.304688 168.140625 244.203125 166.386719 241.800781 166.386719 M 269.078125 158.898438 C 268.40625 158.898438 267.722656 159.035156 267.066406 159.328125 C 263.15625 161.082031 258.910156 162.535156 254.433594 163.722656 C 251.800781 164.421875 250.234375 167.121094 250.933594 169.75 C 251.519531 171.960938 253.515625 173.417969 255.695312 173.417969 C 256.113281 173.417969 256.539062 173.363281 256.960938 173.25 C 261.867188 171.949219 266.613281 170.335938 271.09375 168.328125 C 273.578125 167.214844 274.695312 164.296875 273.578125 161.8125 C 272.761719 159.984375 270.964844 158.898438 269.078125 158.898438 M 290.960938 141.46875 C 289.378906 141.46875 287.820312 142.230469 286.871094 143.644531 C 284.53125 147.117188 281.636719 150.121094 278.246094 152.746094 C 276.097656 154.417969 275.703125 157.511719 277.371094 159.664062 C 278.339844 160.917969 279.796875 161.574219 281.269531 161.574219 C 282.324219 161.574219 283.390625 161.238281 284.285156 160.542969 C 288.410156 157.347656 292.070312 153.570312 295.042969 149.15625 C 296.566406 146.898438 295.96875 143.832031 293.710938 142.3125 C 292.867188 141.742188 291.90625 141.46875 290.960938 141.46875 M 293.746094 118.476562 C 293.671875 118.816406 293.628906 119.167969 293.628906 119.53125 L 293.625 119.53125 C 293.597656 124.277344 293.023438 128.5 292.003906 132.277344 C 291.292969 134.90625 292.851562 137.613281 295.480469 138.320312 C 295.90625 138.4375 296.339844 138.492188 296.765625 138.492188 C 298.023438 138.492188 299.222656 138.003906 300.125 137.167969 L 293.746094 118.476562 " fill-opacity="1" fill-rule="nonzero"/><path fill="#145da0" d="M 50.578125 244.4375 L 39.382812 244.4375 C 38.976562 245.550781 38.652344 246.710938 38.425781 247.910156 C 37.910156 250.582031 39.660156 253.167969 42.335938 253.679688 C 42.648438 253.742188 42.960938 253.769531 43.269531 253.769531 C 45.589844 253.769531 47.652344 252.128906 48.105469 249.769531 C 48.445312 248.015625 49.074219 246.558594 50.007812 245.199219 C 50.1875 244.941406 50.375 244.6875 50.578125 244.4375 M 298.554688 114.632812 C 296.210938 114.632812 294.242188 116.273438 293.746094 118.476562 L 300.125 137.167969 C 300.777344 136.558594 301.273438 135.769531 301.523438 134.847656 C 302.78125 130.183594 303.453125 125.101562 303.488281 119.59375 C 303.503906 116.871094 301.3125 114.648438 298.589844 114.632812 C 298.578125 114.632812 298.566406 114.632812 298.554688 114.632812 " fill-opacity="1" fill-rule="nonzero"/><g fill="#051d40" fill-opacity="1"><g transform="translate(-0.211451, 353.613874)"><g><path d="M 8.90625 -76.0625 L 8.90625 -13.453125 L 53.703125 -13.453125 L 53.703125 -76.0625 Z M 40.5625 -65.546875 L 40.5625 -23.96875 L 22.046875 -23.96875 L 22.046875 -65.546875 Z M 68.171875 -84.453125 L 68.171875 8.90625 L 81.515625 8.90625 L 81.515625 -84.453125 Z M 68.171875 -84.453125 "/></g></g></g><g fill="#051d40" fill-opacity="1"><g transform="translate(91.212559, 353.613874)"><g><path d="M 19.828125 -39.34375 L 41.96875 -39.34375 L 41.96875 -75.453125 L 6.78125 -75.453125 L 6.78125 -64.734375 L 29.125 -64.734375 L 29.125 -49.859375 L 6.875 -49.859375 L 6.875 -11.9375 L 13.453125 -11.9375 C 24.671875 -11.9375 34.796875 -12.234375 46.734375 -14.15625 L 45.71875 -24.984375 C 36.40625 -23.5625 28.3125 -23.0625 19.828125 -22.859375 Z M 71.609375 -84.546875 L 71.609375 -49.359375 L 63.21875 -49.359375 L 63.21875 -82.828125 L 50.765625 -82.828125 L 50.765625 4.25 L 63.21875 4.25 L 63.21875 -38.640625 L 71.609375 -38.640625 L 71.609375 8.59375 L 84.25 8.59375 L 84.25 -84.546875 Z M 71.609375 -84.546875 "/></g></g></g><g fill="#051d40" fill-opacity="1"><g transform="translate(182.63657, 353.613874)"><g><path d="M 51.484375 -34.390625 L 51.484375 -45.71875 L 34.890625 -45.71875 L 34.890625 -61.796875 L 49.15625 -61.796875 L 49.15625 -72.921875 L 22.453125 -72.921875 C 23.46875 -76.359375 24.28125 -79.796875 24.984375 -83.34375 L 13.453125 -85.671875 C 11.421875 -74.140625 7.578125 -62.5 2.125 -55.21875 C 4.859375 -53.703125 9.609375 -50.265625 11.828125 -48.25 C 14.359375 -51.984375 16.6875 -56.640625 18.71875 -61.796875 L 22.75 -61.796875 L 22.75 -45.71875 L 4.046875 -45.71875 L 4.046875 -34.390625 L 21.953125 -34.390625 C 20.328125 -22.65625 15.671875 -10.015625 2.53125 -0.609375 C 5.0625 1.21875 9.5 5.96875 11.125 8.5 C 20.828125 1.421875 26.796875 -8.09375 30.234375 -18 C 35.203125 -11.828125 40.96875 -4.25 44.296875 1.015625 L 52.390625 -9.109375 C 49.5625 -12.4375 38.640625 -25.078125 33.375 -30.234375 C 33.6875 -31.5625 33.875 -32.96875 34.078125 -34.390625 Z M 65.84375 -12.75 L 65.84375 -65.640625 L 80.515625 -65.640625 L 80.515625 -12.75 Z M 54.21875 -76.96875 L 54.21875 5.859375 L 65.84375 5.859375 L 65.84375 -1.421875 L 80.515625 -1.421875 L 80.515625 4.34375 L 92.75 4.34375 L 92.75 -76.96875 Z M 54.21875 -76.96875 "/></g></g></g><g fill="#051d40" fill-opacity="1"><g transform="translate(282.151216, 353.613874)"><g><path d="M 53.09375 -12.75 L 53.09375 -32.15625 L 79.703125 -32.15625 L 79.703125 -42.890625 L 27.609375 -42.890625 L 27.609375 -67.359375 L 78.984375 -67.359375 L 78.984375 -78.078125 L 14.15625 -78.078125 L 14.15625 -32.15625 L 39.75 -32.15625 L 39.75 -12.75 L 4.34375 -12.75 L 4.34375 -1.828125 L 88.703125 -1.828125 L 88.703125 -12.75 Z M 53.09375 -12.75 "/></g></g></g></svg>