<svg xmlns="http://www.w3.org/2000/svg" xmlns:xlink="http://www.w3.org/1999/xlink" width="1000" zoomAndPan="magnify" viewBox="0 0 750 374.999991" height="500" preserveAspectRatio="xMidYMid meet" version="1.0"><defs><g/><clipPath id="ab838d502e"><path d="M 0 166 L 299 166 L 299 305.324219 L 0 305.324219 Z M 0 166 " clip-rule="nonzero"/></clipPath><clipPath id="13b88a241f"><path d="M 103 69.824219 L 197 69.824219 L 197 211 L 103 211 Z M 103 69.824219 " clip-rule="nonzero"/></clipPath></defs><rect x="-75" width="900" fill="#ffffff" y="-37.499999" height="449.999989" fill-opacity="1"/><rect x="-75" width="900" fill="#52acff" y="-37.499999" height="449.999989" fill-opacity="1"/><g clip-path="url(#ab838d502e)"><path fill="#ffffff" d="M 129.039062 167.589844 C 129.398438 168.367188 129.765625 169.140625 130.132812 169.910156 C 129.992188 169.027344 129.601562 168.226562 129.039062 167.589844 M 249.972656 166.054688 C 249.972656 166.054688 218.855469 166.054688 181.335938 166.054688 C 179.972656 169.152344 178.558594 172.210938 177.125 175.179688 C 209.214844 175.179688 237.378906 175.179688 246.707031 175.179688 L 248.179688 179.5 C 248.636719 177.460938 250.457031 175.941406 252.632812 175.941406 C 252.640625 175.941406 252.652344 175.941406 252.660156 175.941406 C 255.179688 175.957031 257.207031 178.015625 257.195312 180.535156 C 257.164062 185.632812 256.542969 190.335938 255.375 194.65625 C 255.144531 195.507812 254.6875 196.242188 254.082031 196.804688 L 287.976562 296.105469 L 23.070312 296.105469 C 22.882812 296.339844 22.707031 296.574219 22.542969 296.8125 C 21.675781 298.070312 21.09375 299.421875 20.777344 301.042969 C 20.359375 303.226562 18.449219 304.746094 16.300781 304.746094 C 16.015625 304.746094 15.726562 304.722656 15.4375 304.664062 C 12.960938 304.1875 11.339844 301.796875 11.816406 299.324219 C 12.027344 298.210938 12.328125 297.136719 12.707031 296.105469 L 11.90625 296.105469 L 55.808594 175.179688 C 56.570312 175.179688 57.460938 175.179688 58.472656 175.179688 C 69.367188 175.179688 94.222656 175.179688 122.539062 175.179688 C 121.101562 172.210938 119.683594 169.152344 118.316406 166.054688 C 101.421875 166.054688 85.984375 166.054688 74.324219 166.054688 C 67.664062 166.054688 62.234375 166.054688 58.472656 166.054688 C 54.710938 166.054688 52.617188 166.054688 52.613281 166.054688 C 50.695312 166.054688 48.976562 167.261719 48.324219 169.0625 L 1.105469 299.113281 C 0.59375 300.519531 0.796875 302.066406 1.65625 303.289062 C 2.515625 304.511719 3.898438 305.234375 5.394531 305.234375 L 294.351562 305.234375 C 295.832031 305.234375 297.203125 304.527344 298.0625 303.324219 C 298.925781 302.121094 299.148438 300.597656 298.671875 299.195312 L 254.289062 169.144531 C 253.65625 167.292969 251.929688 166.054688 249.972656 166.054688 " fill-opacity="1" fill-rule="nonzero"/></g><g clip-path="url(#13b88a241f)"><path fill="#4f1e0c" d="M 149.832031 139.835938 C 143.789062 139.832031 138.363281 137.398438 134.398438 133.441406 C 130.441406 129.476562 128.007812 124.050781 128.007812 118.007812 C 128.007812 111.96875 130.441406 106.539062 134.398438 102.578125 C 138.363281 98.621094 143.789062 96.183594 149.832031 96.183594 C 155.875 96.183594 161.300781 98.621094 165.265625 102.578125 C 169.21875 106.542969 171.65625 111.96875 171.65625 118.007812 C 171.65625 124.050781 169.21875 129.480469 165.265625 133.441406 C 161.300781 137.398438 155.871094 139.832031 149.832031 139.835938 M 149.839844 87.058594 C 149.835938 87.058594 149.835938 87.058594 149.828125 87.058594 C 149.828125 87.058594 149.824219 87.058594 149.820312 87.058594 C 141.289062 87.058594 133.527344 90.53125 127.945312 96.121094 C 122.351562 101.710938 118.875 109.476562 118.878906 118.007812 C 118.875 126.542969 122.351562 134.308594 127.945312 139.898438 C 133.527344 145.488281 141.292969 148.960938 149.824219 148.960938 C 149.824219 148.960938 149.828125 148.960938 149.828125 148.960938 C 158.363281 148.964844 166.128906 145.488281 171.71875 139.898438 C 177.3125 134.308594 180.785156 126.542969 180.78125 118.007812 C 180.785156 109.476562 177.3125 101.710938 171.71875 96.121094 C 166.132812 90.53125 158.367188 87.058594 149.839844 87.058594 M 149.839844 69.875 C 149.835938 69.875 149.835938 69.875 149.828125 69.875 C 137.0625 69.871094 125.457031 75.0625 117.097656 83.433594 C 108.726562 91.796875 103.535156 103.398438 103.535156 116.167969 C 103.539062 119.546875 104.078125 123.351562 104.980469 127.566406 C 106.5625 134.925781 109.300781 143.511719 112.675781 152.359375 C 114.410156 156.910156 116.3125 161.523438 118.316406 166.054688 C 120.722656 166.054688 123.164062 166.054688 125.625 166.054688 C 126.980469 166.054688 128.199219 166.648438 129.035156 167.589844 C 125.414062 159.820312 122.003906 151.578125 119.25 143.8125 C 117.230469 138.117188 115.5625 132.675781 114.414062 127.90625 C 113.261719 123.140625 112.65625 119.011719 112.664062 116.167969 C 112.664062 105.890625 116.816406 96.625 123.550781 89.886719 C 130.289062 83.152344 139.550781 79.003906 149.828125 79 C 160.109375 79.003906 169.371094 83.152344 176.113281 89.886719 C 182.84375 96.625 186.996094 105.890625 186.996094 116.167969 C 187.003906 118.527344 186.578125 121.828125 185.746094 125.640625 C 184.300781 132.328125 181.667969 140.632812 178.394531 149.214844 C 173.480469 162.097656 167.109375 175.679688 161.21875 185.851562 C 158.28125 190.933594 155.441406 195.171875 153.109375 197.9375 C 151.953125 199.320312 150.914062 200.320312 150.222656 200.835938 C 150.125 200.910156 150.03125 200.972656 149.953125 201.027344 C 149.761719 200.910156 149.519531 200.738281 149.246094 200.507812 C 148.101562 199.578125 146.449219 197.765625 144.664062 195.347656 C 141.511719 191.105469 137.84375 185.015625 134.207031 178.0625 C 132.839844 175.453125 131.472656 172.71875 130.132812 169.910156 C 130.167969 170.140625 130.1875 170.378906 130.1875 170.621094 C 130.1875 173.140625 128.144531 175.183594 125.625 175.183594 C 124.59375 175.183594 123.5625 175.183594 122.539062 175.183594 C 125.136719 180.546875 127.820312 185.628906 130.457031 190.164062 C 133.582031 195.535156 136.628906 200.125 139.546875 203.597656 C 141.015625 205.332031 142.441406 206.800781 143.980469 207.976562 C 144.75 208.566406 145.554688 209.085938 146.460938 209.507812 C 147.363281 209.921875 148.386719 210.25 149.5625 210.324219 C 149.703125 210.332031 149.84375 210.335938 149.976562 210.335938 C 150.90625 210.335938 151.757812 210.15625 152.507812 209.894531 C 153.96875 209.382812 155.128906 208.609375 156.246094 207.710938 C 158.3125 206.015625 160.246094 203.769531 162.296875 201.011719 C 165.859375 196.1875 169.660156 189.785156 173.453125 182.519531 C 174.683594 180.15625 175.914062 177.699219 177.128906 175.183594 C 176.441406 175.183594 175.75 175.183594 175.058594 175.183594 C 172.539062 175.183594 170.496094 173.140625 170.496094 170.621094 C 170.496094 168.097656 172.539062 166.054688 175.058594 166.054688 C 177.167969 166.054688 179.261719 166.054688 181.335938 166.054688 C 184.132812 159.707031 186.734375 153.199219 188.960938 146.933594 C 191.078125 140.976562 192.847656 135.246094 194.101562 130.042969 C 195.355469 124.832031 196.121094 120.1875 196.125 116.167969 C 196.128906 103.398438 190.9375 91.796875 182.566406 83.433594 C 174.203125 75.066406 162.605469 69.875 149.839844 69.875 " fill-opacity="1" fill-rule="nonzero"/></g><path fill="#145da0" d="M 125.625 166.054688 C 123.164062 166.054688 120.722656 166.054688 118.316406 166.054688 C 119.683594 169.152344 121.101562 172.210938 122.539062 175.179688 C 123.5625 175.179688 124.59375 175.179688 125.625 175.179688 C 128.144531 175.179688 130.1875 173.136719 130.1875 170.617188 C 130.1875 170.378906 130.167969 170.140625 130.132812 169.910156 C 129.765625 169.140625 129.398438 168.367188 129.039062 167.589844 C 128.199219 166.648438 126.980469 166.054688 125.625 166.054688 M 181.335938 166.054688 C 179.261719 166.054688 177.167969 166.054688 175.058594 166.054688 C 172.539062 166.054688 170.496094 168.097656 170.496094 170.617188 C 170.496094 173.136719 172.539062 175.179688 175.058594 175.179688 C 175.746094 175.179688 176.441406 175.179688 177.125 175.179688 C 178.558594 172.207031 179.96875 169.152344 181.335938 166.054688 " fill-opacity="1" fill-rule="nonzero"/><path fill="#4f1e0c" d="M 23.445312 285.039062 C 22.527344 285.039062 21.605469 285.316406 20.804688 285.882812 C 18.566406 287.472656 16.589844 289.375 15.03125 291.628906 C 14.082031 293 13.296875 294.5 12.707031 296.105469 L 23.070312 296.105469 C 23.863281 295.121094 24.863281 294.195312 26.089844 293.324219 C 28.144531 291.863281 28.625 289.015625 27.167969 286.960938 C 26.277344 285.710938 24.871094 285.039062 23.445312 285.039062 M 48.339844 277.492188 C 48.171875 277.492188 48.003906 277.5 47.832031 277.519531 L 47.835938 277.519531 C 43.054688 278.046875 38.472656 278.824219 34.230469 279.964844 C 31.796875 280.617188 30.355469 283.121094 31.007812 285.554688 C 31.554688 287.589844 33.398438 288.933594 35.410156 288.933594 C 35.804688 288.933594 36.203125 288.882812 36.597656 288.777344 C 40.246094 287.792969 44.398438 287.078125 48.835938 286.589844 C 51.339844 286.3125 53.144531 284.058594 52.871094 281.554688 C 52.609375 279.21875 50.632812 277.492188 48.339844 277.492188 M 87.707031 276.980469 C 85.269531 276.980469 83.25 278.902344 83.148438 281.359375 C 83.046875 283.875 85.007812 286 87.523438 286.101562 C 92.183594 286.292969 96.621094 286.503906 100.664062 286.652344 C 100.722656 286.652344 100.78125 286.652344 100.835938 286.652344 C 103.277344 286.652344 105.300781 284.722656 105.394531 282.257812 C 105.488281 279.742188 103.519531 277.625 101 277.53125 C 97.027344 277.382812 92.59375 277.171875 87.894531 276.980469 C 87.832031 276.980469 87.769531 276.980469 87.707031 276.980469 M 68.832031 276.527344 C 66.328125 276.527344 63.808594 276.558594 61.308594 276.632812 C 58.785156 276.703125 56.804688 278.804688 56.878906 281.324219 C 56.953125 283.800781 58.976562 285.753906 61.4375 285.753906 C 61.484375 285.753906 61.527344 285.753906 61.574219 285.753906 C 63.972656 285.683594 66.402344 285.652344 68.832031 285.652344 C 70.722656 285.652344 72.617188 285.671875 74.503906 285.703125 C 74.53125 285.703125 74.558594 285.703125 74.582031 285.703125 C 77.066406 285.703125 79.101562 283.710938 79.144531 281.21875 C 79.1875 278.699219 77.179688 276.621094 74.660156 276.578125 C 72.730469 276.542969 70.785156 276.527344 68.832031 276.527344 M 126.582031 274.292969 C 125.898438 274.292969 125.207031 274.449219 124.554688 274.773438 C 122.003906 276.050781 118.726562 277.019531 115.949219 277.410156 C 115.335938 277.496094 114.574219 277.570312 113.691406 277.621094 C 111.175781 277.769531 109.257812 279.929688 109.40625 282.445312 C 109.550781 284.871094 111.558594 286.738281 113.957031 286.738281 C 114.046875 286.738281 114.140625 286.738281 114.230469 286.730469 C 115.296875 286.667969 116.292969 286.578125 117.234375 286.445312 C 120.992188 285.902344 125.007812 284.734375 128.621094 282.945312 C 130.875 281.824219 131.792969 279.082031 130.671875 276.828125 C 129.871094 275.222656 128.257812 274.292969 126.582031 274.292969 M 123.546875 256.121094 C 121.707031 256.121094 119.972656 257.242188 119.28125 259.066406 C 118.386719 261.421875 119.570312 264.058594 121.925781 264.953125 C 122.78125 265.273438 123.503906 265.621094 124.070312 265.964844 C 125.824219 267.023438 127.050781 268 127.820312 268.792969 C 128.597656 269.589844 128.902344 270.171875 129.003906 270.472656 C 129.660156 272.355469 131.425781 273.53125 133.308594 273.53125 C 133.808594 273.53125 134.320312 273.449219 134.816406 273.273438 C 137.195312 272.441406 138.449219 269.835938 137.617188 267.457031 C 136.964844 265.597656 135.828125 263.9375 134.355469 262.425781 C 132.875 260.910156 131.039062 259.515625 128.789062 258.152344 C 127.628906 257.453125 126.414062 256.894531 125.164062 256.421875 C 124.636719 256.21875 124.085938 256.121094 123.546875 256.121094 M 98.066406 249.875 C 96.28125 249.875 94.589844 250.925781 93.855469 252.671875 C 92.882812 254.992188 93.972656 257.667969 96.296875 258.644531 C 100.691406 260.480469 105.457031 261.378906 109.945312 262.207031 C 110.21875 262.257812 110.496094 262.28125 110.769531 262.28125 C 112.929688 262.28125 114.851562 260.738281 115.253906 258.539062 C 115.703125 256.058594 114.0625 253.679688 111.582031 253.230469 C 107.195312 252.4375 102.964844 251.558594 99.832031 250.230469 C 99.253906 249.988281 98.652344 249.875 98.066406 249.875 M 96.269531 230.277344 C 95.355469 230.277344 94.429688 230.550781 93.628906 231.121094 C 91.546875 232.613281 89.496094 234.402344 87.828125 236.601562 C 86.996094 237.707031 86.261719 238.917969 85.714844 240.28125 C 85.164062 241.636719 84.8125 243.15625 84.8125 244.769531 C 84.8125 245.113281 84.828125 245.457031 84.863281 245.804688 C 85.085938 248.167969 87.074219 249.941406 89.402344 249.941406 C 89.542969 249.941406 89.6875 249.933594 89.835938 249.917969 C 92.34375 249.679688 94.1875 247.453125 93.949219 244.945312 L 93.941406 244.769531 C 93.941406 244.488281 93.996094 244.140625 94.179688 243.6875 C 94.445312 243.003906 95.023438 242.109375 95.863281 241.203125 C 96.699219 240.289062 97.78125 239.371094 98.921875 238.558594 C 100.976562 237.097656 101.453125 234.246094 99.992188 232.195312 C 99.101562 230.941406 97.695312 230.277344 96.269531 230.277344 M 160.761719 225.679688 C 158.300781 225.679688 156.273438 227.640625 156.203125 230.117188 C 156.132812 232.636719 158.121094 234.734375 160.640625 234.804688 C 163.71875 234.890625 166.890625 234.941406 170.125 234.941406 C 171.394531 234.941406 172.671875 234.933594 173.957031 234.917969 C 176.476562 234.882812 178.492188 232.8125 178.460938 230.292969 C 178.425781 227.796875 176.390625 225.792969 173.898438 225.792969 C 173.875 225.792969 173.855469 225.792969 173.835938 225.792969 C 172.59375 225.808594 171.355469 225.816406 170.125 225.816406 C 166.988281 225.816406 163.902344 225.765625 160.890625 225.679688 C 160.847656 225.679688 160.804688 225.679688 160.761719 225.679688 M 134.527344 224.390625 C 132.113281 224.390625 130.097656 226.285156 129.976562 228.722656 C 129.847656 231.242188 131.785156 233.382812 134.304688 233.507812 C 137.328125 233.664062 140.324219 233.851562 143.234375 234.019531 C 144.582031 234.09375 145.96875 234.171875 147.402344 234.25 C 147.484375 234.253906 147.566406 234.253906 147.648438 234.253906 C 150.058594 234.253906 152.070312 232.371094 152.199219 229.9375 C 152.332031 227.421875 150.402344 225.269531 147.886719 225.136719 C 146.476562 225.0625 145.09375 224.984375 143.757812 224.90625 C 140.882812 224.742188 137.863281 224.550781 134.761719 224.394531 C 134.683594 224.390625 134.605469 224.390625 134.527344 224.390625 M 121.40625 224.136719 C 121.371094 224.136719 121.332031 224.136719 121.292969 224.136719 C 116.671875 224.25 112.019531 224.628906 107.488281 225.492188 C 105.015625 225.964844 103.390625 228.359375 103.867188 230.832031 C 104.28125 233.019531 106.199219 234.539062 108.34375 234.539062 C 108.628906 234.539062 108.914062 234.511719 109.207031 234.457031 C 113.078125 233.714844 117.242188 233.363281 121.515625 233.261719 C 124.035156 233.199219 126.027344 231.105469 125.964844 228.589844 C 125.90625 226.105469 123.878906 224.136719 121.40625 224.136719 M 200.09375 223.851562 C 199.867188 223.851562 199.640625 223.871094 199.410156 223.902344 C 195.25 224.527344 190.988281 224.972656 186.703125 225.273438 C 184.191406 225.449219 182.296875 227.632812 182.472656 230.144531 C 182.644531 232.550781 184.644531 234.386719 187.019531 234.386719 C 187.128906 234.386719 187.238281 234.382812 187.347656 234.375 C 191.828125 234.0625 196.324219 233.59375 200.765625 232.929688 C 203.253906 232.554688 204.972656 230.230469 204.597656 227.738281 C 204.261719 225.476562 202.3125 223.851562 200.09375 223.851562 M 225.34375 216.921875 C 224.71875 216.921875 224.085938 217.046875 223.480469 217.320312 C 219.859375 218.941406 215.929688 220.289062 211.785156 221.386719 C 209.351562 222.03125 207.898438 224.53125 208.546875 226.96875 C 209.085938 229.011719 210.933594 230.363281 212.953125 230.363281 C 213.339844 230.363281 213.734375 230.3125 214.125 230.207031 C 218.667969 229.003906 223.0625 227.507812 227.210938 225.648438 C 229.511719 224.621094 230.542969 221.921875 229.511719 219.621094 C 228.753906 217.925781 227.089844 216.921875 225.34375 216.921875 M 245.601562 200.785156 C 244.136719 200.785156 242.695312 201.492188 241.816406 202.800781 C 239.648438 206.015625 236.96875 208.796875 233.832031 211.226562 C 231.839844 212.773438 231.476562 215.636719 233.019531 217.628906 C 233.917969 218.792969 235.265625 219.398438 236.628906 219.398438 C 237.605469 219.398438 238.589844 219.085938 239.421875 218.441406 C 243.242188 215.484375 246.625 211.988281 249.378906 207.902344 C 250.789062 205.8125 250.238281 202.976562 248.144531 201.566406 C 247.363281 201.039062 246.476562 200.785156 245.601562 200.785156 M 248.179688 179.5 C 248.109375 179.816406 248.070312 180.144531 248.070312 180.476562 L 248.066406 180.476562 C 248.042969 184.871094 247.507812 188.78125 246.566406 192.277344 C 245.910156 194.710938 247.351562 197.214844 249.785156 197.871094 C 250.179688 197.980469 250.582031 198.03125 250.972656 198.03125 C 252.140625 198.03125 253.25 197.578125 254.085938 196.804688 L 248.179688 179.5 " fill-opacity="1" fill-rule="nonzero"/><path fill="#145da0" d="M 23.070312 296.105469 L 12.707031 296.105469 C 12.328125 297.136719 12.027344 298.214844 11.816406 299.324219 C 11.339844 301.796875 12.964844 304.1875 15.4375 304.664062 C 15.726562 304.722656 16.019531 304.746094 16.304688 304.746094 C 18.449219 304.746094 20.359375 303.226562 20.78125 301.042969 C 21.097656 299.421875 21.675781 298.070312 22.542969 296.8125 C 22.707031 296.574219 22.882812 296.339844 23.070312 296.105469 M 252.632812 175.941406 C 250.460938 175.941406 248.640625 177.460938 248.179688 179.5 L 254.085938 196.804688 C 254.6875 196.242188 255.148438 195.507812 255.378906 194.65625 C 256.542969 190.335938 257.164062 185.632812 257.195312 180.535156 C 257.210938 178.015625 255.183594 175.957031 252.660156 175.941406 C 252.652344 175.941406 252.640625 175.941406 252.632812 175.941406 " fill-opacity="1" fill-rule="nonzero"/><g fill="#051d40" fill-opacity="1"><g transform="translate(299.996415, 246.250486)"><g><path d="M 10.65625 -91.09375 L 10.65625 -16.109375 L 64.3125 -16.109375 L 64.3125 -91.09375 Z M 48.578125 -78.484375 L 48.578125 -28.703125 L 26.40625 -28.703125 L 26.40625 -78.484375 Z M 81.640625 -101.140625 L 81.640625 10.65625 L 97.625 10.65625 L 97.625 -101.140625 Z M 81.640625 -101.140625 "/></g></g></g><g fill="#051d40" fill-opacity="1"><g transform="translate(409.49325, 246.250486)"><g><path d="M 23.734375 -47.125 L 50.265625 -47.125 L 50.265625 -90.359375 L 8.109375 -90.359375 L 8.109375 -77.515625 L 34.890625 -77.515625 L 34.890625 -59.71875 L 8.234375 -59.71875 L 8.234375 -14.296875 L 16.109375 -14.296875 C 29.546875 -14.296875 41.671875 -14.65625 55.953125 -16.953125 L 54.75 -29.921875 C 43.609375 -28.21875 33.921875 -27.609375 23.734375 -27.375 Z M 85.75 -101.265625 L 85.75 -59.109375 L 75.703125 -59.109375 L 75.703125 -99.203125 L 60.8125 -99.203125 L 60.8125 5.09375 L 75.703125 5.09375 L 75.703125 -46.265625 L 85.75 -46.265625 L 85.75 10.296875 L 100.890625 10.296875 L 100.890625 -101.265625 Z M 85.75 -101.265625 "/></g></g></g><g fill="#051d40" fill-opacity="1"><g transform="translate(518.996405, 246.250486)"><g><path d="M 39.734375 -76.796875 L 58.859375 -76.796875 L 58.859375 -85.15625 L 24.34375 -85.15625 C 25.796875 -89.75 27.125 -94.59375 28.09375 -99.6875 L 19.375 -101.375 C 16.46875 -86.71875 11.5 -72.3125 4.359375 -62.984375 C 6.421875 -61.78125 10.171875 -59.34375 11.75 -57.78125 C 15.5 -62.984375 18.65625 -69.53125 21.5625 -76.796875 L 30.765625 -76.796875 L 30.765625 -56.921875 C 30.765625 -55.59375 30.765625 -54.140625 30.765625 -52.6875 L 5.8125 -52.6875 L 5.8125 -44.09375 L 30.15625 -44.09375 C 28.578125 -28.21875 22.890625 -10.78125 4.484375 2.296875 C 6.421875 3.640625 9.5625 7.03125 10.78125 8.96875 C 24.59375 -0.84375 31.984375 -13.921875 35.859375 -26.765625 C 42.390625 -19.375 51.84375 -8 55.953125 -2.0625 L 62.015625 -9.6875 C 58.265625 -13.921875 43.609375 -30.28125 37.90625 -35.96875 C 38.390625 -38.640625 38.875 -41.421875 39.125 -44.09375 L 62.375 -44.09375 L 62.375 -52.6875 L 39.609375 -52.6875 C 39.734375 -54.140625 39.734375 -55.59375 39.734375 -56.8125 Z M 74.96875 -12.234375 L 74.96875 -82.359375 L 100.53125 -82.359375 L 100.53125 -12.234375 Z M 66.25 -90.84375 L 66.25 5.8125 L 74.96875 5.8125 L 74.96875 -3.75 L 100.53125 -3.75 L 100.53125 4.609375 L 109.5 4.609375 L 109.5 -90.84375 Z M 66.25 -90.84375 "/></g></g></g><g fill="#051d40" fill-opacity="1"><g transform="translate(638.187799, 246.250486)"><g><path d="M 63.59375 -15.265625 L 63.59375 -38.515625 L 95.453125 -38.515625 L 95.453125 -51.359375 L 33.0625 -51.359375 L 33.0625 -80.671875 L 94.59375 -80.671875 L 94.59375 -93.515625 L 16.953125 -93.515625 L 16.953125 -38.515625 L 47.609375 -38.515625 L 47.609375 -15.265625 L 5.203125 -15.265625 L 5.203125 -2.1875 L 106.234375 -2.1875 L 106.234375 -15.265625 Z M 63.59375 -15.265625 "/></g></g></g></svg>